<svg width="16" height="16" viewBox="0 0 16 16" fill="none" xmlns="http://www.w3.org/2000/svg">
<path d="M13.3589 11.2376C15.0613 9.72101 16 8.00004 16 8.00004C16 8.00004 13 2.50004 8 2.50004C6.98462 2.50004 6.05172 2.72686 5.20967 3.08837L5.98054 3.85925C6.60983 3.63321 7.28441 3.50004 8 3.50004C10.1194 3.50004 11.879 4.66822 13.1679 5.95714C13.8037 6.59294 14.2978 7.23197 14.6327 7.71246C14.7055 7.81681 14.7704 7.91325 14.8273 8.00004C14.7704 8.08683 14.7055 8.18327 14.6327 8.28762C14.2978 8.76811 13.8037 9.40713 13.1679 10.0429C13.0031 10.2078 12.8306 10.3706 12.6506 10.5293L13.3589 11.2376Z" fill="#737373"/>
<path d="M11.2975 9.17618C11.4286 8.8086 11.5 8.41266 11.5 8.00004C11.5 6.06704 9.933 4.50004 8 4.50004C7.58738 4.50004 7.19144 4.57144 6.82386 4.70256L7.64618 5.52488C7.76176 5.50851 7.87989 5.50004 8 5.50004C9.38071 5.50004 10.5 6.61933 10.5 8.00004C10.5 8.12014 10.4915 8.23827 10.4752 8.35386L11.2975 9.17618Z" fill="#737373"/>
<path d="M8.35385 10.4752L9.17617 11.2975C8.80858 11.4286 8.41263 11.5 8 11.5C6.067 11.5 4.5 9.93303 4.5 8.00004C4.5 7.58741 4.5714 7.19146 4.70253 6.82387L5.52485 7.64619C5.50847 7.76178 5.5 7.87992 5.5 8.00004C5.5 9.38075 6.61929 10.5 8 10.5C8.12012 10.5 8.23825 10.4916 8.35385 10.4752Z" fill="#737373"/>
<path d="M3.34944 5.47078C3.16945 5.62947 2.99693 5.79232 2.83211 5.95714C2.19631 6.59294 1.70216 7.23197 1.36727 7.71246C1.29454 7.81681 1.22963 7.91325 1.1727 8.00004C1.22963 8.08683 1.29454 8.18327 1.36727 8.28762C1.70216 8.76811 2.19631 9.40713 2.83211 10.0429C4.12103 11.3319 5.88062 12.5 8 12.5C8.7156 12.5 9.39018 12.3669 10.0195 12.1408L10.7904 12.9117C9.9483 13.2732 9.01539 13.5 8 13.5C3 13.5 0 8.00004 0 8.00004C0 8.00004 0.938717 6.27906 2.64112 4.76246L3.34944 5.47078Z" fill="#737373"/>
<path d="M13.6464 14.3536L1.64645 2.35359L2.35355 1.64648L14.3536 13.6465L13.6464 14.3536Z" fill="#737373"/>
</svg>
