<svg width="113" height="113" viewBox="0 0 113 113" fill="none" xmlns="http://www.w3.org/2000/svg">
<g clip-path="url(#clip0_1_93)">
<path fill-rule="evenodd" clip-rule="evenodd" d="M56.4228 112.647C49.5401 112.647 42.9417 111.394 36.843 109.107C34.7731 110.12 32.4211 110.839 29.8582 111.337C28.037 106.24 25.7827 101.454 18.3959 100.312C17.9228 99.1482 17.5586 97.7645 17.0856 96.6008C17.1433 96.6119 17.201 96.623 17.2588 96.6341C6.83816 86.4444 0.353027 72.246 0.353027 56.5795C0.353027 25.6974 25.5407 0.509766 56.4228 0.509766C87.3049 0.509766 112.49 25.6974 112.49 56.5795C112.49 72.2482 106.005 86.4467 95.5845 96.6363C95.6467 96.6252 95.7089 96.6119 95.7711 96.5985C95.298 97.7645 94.9338 99.146 94.4607 100.312C87.0739 101.454 84.8196 106.242 82.9985 111.337C80.4333 110.839 78.0791 110.12 76.0092 109.105C69.9061 111.392 63.3077 112.647 56.4228 112.647Z" fill="#FFEC00"/>
<path fill-rule="evenodd" clip-rule="evenodd" d="M62.8857 5.12933C63.0655 5.19818 63.2432 5.27369 63.4209 5.35364C63.6141 5.45136 63.7962 5.55353 63.9784 5.66235L63.9561 5.2537C63.6075 5.20928 63.2499 5.16708 62.8857 5.12933ZM63.754 10.0531L63.5386 10.1531L62.8812 10.3352L62.2038 10.424C61.8529 10.4351 61.5242 10.4285 61.1733 10.3996C60.8246 10.353 60.4959 10.293 60.1539 10.2131C59.8185 10.1176 59.5009 10.0109 59.1745 9.88213C59.0012 9.80662 58.8369 9.72667 58.6703 9.64227C58.4105 9.63117 58.1528 9.62228 57.9019 9.61562C55.3678 9.54455 52.6094 9.89102 50.2796 10.0376L50.213 9.55343C52.5428 9.40685 55.2989 9.06039 57.833 9.13146C57.7064 9.0404 57.5821 8.9449 57.4577 8.84496L56.9935 8.39188L56.6048 7.88329L56.4005 7.5346L56.1584 7.12373C53.3045 7.14594 49.942 7.52128 47.308 7.89662V7.40357C49.9509 7.02601 53.3312 6.64845 56.1918 6.63068L56.3361 6.48854L56.8136 6.02437L57.3422 5.60461L57.9108 5.26703C58.2106 5.12489 58.4971 5.01162 58.8125 4.90723C58.888 4.88725 58.9635 4.86948 59.0368 4.85171C58.1617 4.81618 57.3044 4.79619 56.4982 4.79619C53.9619 4.79619 51.2146 5.22039 48.8915 5.42915L48.8116 4.94721C51.1347 4.73622 53.8842 4.31424 56.4183 4.31424C58.7658 4.31424 61.5753 4.46971 63.925 4.77842L63.8451 3.40588C61.5287 3.11272 58.7925 2.96391 56.4982 2.96391C53.9619 2.96391 51.2146 3.38811 48.8915 3.5991L48.8116 3.11716C51.1347 2.90617 53.8842 2.48419 56.4183 2.48419C58.7303 2.48419 61.4909 2.63522 63.8184 2.93282V2.89284C90.4497 6.48632 110.529 29.7373 110.529 56.5818C110.529 72.0639 103.693 86.9264 92.2797 97.0672C92.0932 97.0761 91.9111 97.0828 91.7334 97.0872C90.523 97.0939 89.4569 96.9717 88.5241 96.7297C87.5913 96.4876 86.7918 96.1233 86.1144 95.6481C86.0744 95.6214 86.0367 95.5925 85.9967 95.5637C87.6713 93.8669 89.4281 92.2522 91.2714 90.742C90.0965 89.847 88.875 89.023 87.6269 88.239C87.7157 88.1546 87.8023 88.068 87.8889 87.9814C96.102 79.8461 100.95 68.2906 100.95 56.5818C100.95 34.841 84.9506 16.0563 63.5608 12.5717L63.5564 12.5784C61.4665 12.2297 58.6792 12.0564 56.4161 12.0564C54.3262 12.0564 52.0608 12.4051 50.1464 12.5784L50.4684 12.0964C52.3829 11.921 54.6482 11.5745 56.7381 11.5745C58.9413 11.5745 61.6397 11.7388 63.7096 12.0698L64.3293 10.1331C64.136 10.1064 63.9428 10.082 63.7474 10.0576L63.754 10.0531Z" fill="#8C563A"/>
<path fill-rule="evenodd" clip-rule="evenodd" d="M24.7545 87.8236L19.0378 91.3593C18.5603 90.8463 18.0939 90.3222 17.6364 89.7891L19.2066 86.1357L15.5287 81.4318L11.8397 81.5095C11.0935 80.1814 10.405 78.8177 9.77647 77.4208L12.3394 74.3403L10.1496 68.7835L6.56722 67.8019C6.23408 66.3272 5.96534 64.8303 5.76324 63.3111L9.11019 61.0791L8.58827 55.1292L5.43454 53.1726C5.5367 51.6401 5.70772 50.1277 5.94091 48.6352L9.78313 47.4448L10.9736 41.5926L8.51054 38.8231C9.04578 37.3884 9.64321 35.9848 10.2984 34.6122L14.3005 34.5634L17.1056 29.2909L15.5465 25.9683C16.4682 24.7402 17.4431 23.5542 18.4692 22.4148L22.2937 23.4987L26.4823 19.2411L25.9316 15.6099C27.1575 14.6949 28.4257 13.8331 29.7338 13.0292L33.1052 15.1635L38.331 12.2718L38.8396 8.60284C39.9879 8.17864 41.1538 7.79442 42.3376 7.45462L45.8556 13.3246C26.4024 18.0929 11.8997 35.696 11.8997 56.5795C11.8997 68.7347 16.8124 79.7772 24.7545 87.8258V87.8236Z" fill="#8C563A"/>
<path fill-rule="evenodd" clip-rule="evenodd" d="M21.7295 91.175V91.1794C21.7295 91.1794 21.7406 91.1728 21.7428 91.1706C22.84 92.4387 24.0237 93.618 25.2764 94.7307C25.1387 94.8951 24.9987 95.0594 24.861 95.2238C23.6906 94.2199 22.6179 93.1339 21.6207 91.9812L18.7068 93.7824L16.6725 91.5614C16.2549 91.0862 15.844 90.6064 15.431 90.1267L17.0256 86.4155L14.6181 83.3373L10.7403 83.4173L9.43887 81.0364C9.21677 80.6144 8.99912 80.188 8.78813 79.7594C8.36171 78.8888 7.96639 78.0026 7.56662 77.1187L10.1718 73.9894L8.73705 70.3537L4.97035 69.3232C4.60389 67.6775 4.24854 66.0296 4.00424 64.3617C3.90874 63.7065 3.82212 63.0513 3.73329 62.3939L7.12909 60.1286L6.78707 56.2353L3.46899 54.1764C3.5867 52.5107 3.71108 50.8473 3.94872 49.1927C4.042 48.5219 4.15082 47.849 4.25521 47.1783L8.15517 45.9701L8.93472 42.1412L6.34066 39.2273C6.7693 38.0947 7.18906 36.9642 7.66878 35.8515C8.12185 34.8032 8.61046 33.7705 9.10129 32.7378L13.1612 32.6889L14.9956 29.2398L13.3544 25.7418C14.2983 24.4937 15.2488 23.2477 16.2705 22.0595C16.7902 21.4599 17.321 20.8691 17.8518 20.2783L21.734 21.3777L24.4746 18.5926L23.8949 14.7726C24.8677 14.053 25.8338 13.329 26.8399 12.6539C27.7949 12.0142 28.7699 11.4079 29.7449 10.8016L33.1696 12.9692L36.5876 11.077L37.1206 7.21923C38.2666 6.80169 39.4148 6.38638 40.5786 6.01326C40.8296 5.9333 41.0827 5.85557 41.3359 5.78006L41.6691 6.33529C41.6691 6.33529 41.6513 6.33974 41.6424 6.34418C40.3054 6.7395 39.0017 7.20146 37.6914 7.68118L37.1672 11.4768L33.1473 13.7021L29.7404 11.5456C28.6389 12.2274 27.5506 12.9137 26.489 13.6555C25.8427 14.1108 25.2075 14.5794 24.5723 15.0525L25.1431 18.8103L21.9205 22.0862L18.0583 20.9912C17.5897 21.5154 17.1166 22.0373 16.6613 22.5703C15.7596 23.6231 14.9201 24.7113 14.0851 25.8173L15.6997 29.2553L13.5409 33.313L9.50105 33.3618C8.94582 34.5256 8.40835 35.6849 7.91975 36.8776C7.62214 37.6105 7.34453 38.3501 7.06691 39.0919L9.61654 41.9569L8.6993 46.4609L4.81932 47.6624C4.71272 48.3532 4.60389 49.0416 4.51283 49.7324C4.33516 51.1005 4.22189 52.4641 4.12861 53.8389L7.39117 55.8644L7.79315 60.4439L4.41289 62.6982C4.49285 63.2978 4.5728 63.8953 4.66164 64.4927C4.88595 65.9496 5.18134 67.3777 5.50337 68.8146L9.21011 69.8296L10.8958 74.1049L8.30619 77.2187C8.59491 77.8605 8.88363 78.5001 9.1879 79.1331C9.78755 80.3768 10.4383 81.5783 11.1112 82.7821L14.9268 82.7021L17.7585 86.3223L16.1727 90.0135C16.6058 90.5176 17.0389 91.0218 17.4831 91.5192C17.9228 92.0101 18.3737 92.492 18.8223 92.974L21.734 91.175H21.7295Z" fill="#8C563A"/>
<path fill-rule="evenodd" clip-rule="evenodd" d="M64.9534 7.97655C63.4809 10.9371 58.3617 9.6045 57.1157 7.25475C59.7275 7.28362 62.3416 7.49461 64.9534 7.97655ZM64.9534 7.51015C63.301 5.34252 59.3033 4.50745 57.1157 6.79057C59.7275 6.81944 62.3416 7.03043 64.9534 7.51015Z" fill="#FFEC00"/>
<path fill-rule="evenodd" clip-rule="evenodd" d="M91.9311 96.2632C92.855 95.7635 93.5679 95.1217 94.0676 94.3355C92.0177 95.0262 89.8723 95.3904 87.6469 95.4903C87.8312 95.8768 88.271 96.2521 88.9661 96.6141C89.9278 96.6963 90.9094 96.6364 91.9311 96.2654V96.2632ZM88.2243 94.9085C90.3964 95.0128 92.6218 94.8019 95.0293 93.4604C94.7561 93.0895 94.2697 92.7608 93.5723 92.4743C92.3353 92.4077 91.2603 92.8141 90.1899 93.2361C89.5347 93.7936 88.8795 94.351 88.2243 94.9107V94.9085ZM90.8895 86.3245C91.1693 85.7227 91.6268 84.9498 92.1509 84.4678C92.0954 86.1891 92.3308 88.6543 92.0932 90.4577C91.3536 90.3578 90.8872 90.0135 90.694 89.4227C90.4497 88.6388 90.372 87.7215 90.8895 86.3245ZM94.0965 84.9165C93.7389 84.3124 93.2459 83.9059 92.6173 83.6994C92.202 85.6316 92.7262 88.1457 92.4019 90.1801C92.946 89.8469 93.428 89.2206 93.881 88.4611C94.0765 87.3417 94.343 86.2557 94.0965 84.9165ZM93.1059 90.2667C95.2714 90.0757 97.4479 89.5671 99.6533 87.9147C99.3312 87.5838 98.8049 87.324 98.0742 87.133C96.8393 87.2351 95.8288 87.7815 94.8272 88.3434C94.2542 88.9852 93.6789 89.6249 93.1059 90.2667ZM96.9615 91.1084C97.8099 90.4888 98.4295 89.7559 98.8182 88.9119C96.8815 89.8714 94.805 90.5243 92.6107 90.9197C92.8461 91.2794 93.3325 91.5904 94.0698 91.8569C95.0337 91.808 95.9976 91.6148 96.9593 91.1107L96.9615 91.1084ZM94.5895 81.4007C94.785 80.7655 95.1359 79.9394 95.5889 79.3908C95.7688 81.1053 96.333 83.5151 96.3418 85.334C95.5956 85.334 95.087 85.0564 94.8161 84.4967C94.4674 83.7527 94.2675 82.8554 94.5895 81.4007ZM97.5767 79.5729C97.1414 79.0221 96.5973 78.6867 95.9465 78.5668C95.7955 80.539 96.6528 82.9576 96.6084 85.0186C97.1036 84.6144 97.4967 83.9282 97.841 83.1153C97.8854 81.9804 98.0009 80.8677 97.5767 79.5729ZM97.3168 85.0053C99.4378 84.5256 101.523 83.726 103.487 81.7916C103.125 81.5073 102.567 81.3208 101.816 81.2297C100.606 81.4985 99.6799 82.1758 98.7627 82.8688C98.2807 83.5817 97.7988 84.2946 97.3168 85.0053ZM101.25 85.3185C102.007 84.59 102.52 83.7794 102.794 82.8888C101.004 84.1014 99.0336 85.0275 96.9148 85.716C97.1969 86.0403 97.721 86.2823 98.4873 86.4467C99.4356 86.2668 100.364 85.947 101.25 85.3162V85.3185ZM97.59 76.0194C97.6966 75.3642 97.932 74.4958 98.3096 73.894C98.7182 75.5686 99.6022 77.8805 99.8554 79.6795C99.1158 79.7817 98.5739 79.5729 98.2319 79.0576C97.7854 78.3669 97.4656 77.503 97.59 76.0194ZM100.304 73.8073C99.7976 73.3187 99.2135 73.0611 98.5539 73.03C98.6694 75.0044 99.8465 77.2853 100.08 79.333C100.517 78.8666 100.813 78.1337 101.046 77.2809C100.935 76.1504 100.901 75.0333 100.306 73.8073H100.304ZM100.779 79.2264C102.816 78.4646 104.775 77.3897 106.458 75.2088C106.061 74.9778 105.483 74.8667 104.728 74.8778C103.567 75.3065 102.738 76.1038 101.923 76.9122C101.541 77.6829 101.161 78.4558 100.779 79.2264ZM104.719 79.0066C105.37 78.1826 105.77 77.312 105.921 76.3925C104.311 77.8361 102.485 79.0199 100.477 79.9882C100.801 80.2703 101.352 80.4413 102.134 80.499C103.049 80.1925 103.926 79.7506 104.719 79.0066ZM99.8376 70.2872C99.8576 69.6231 99.9708 68.7325 100.264 68.0818C100.893 69.6853 102.083 71.8574 102.578 73.6075C101.859 73.8073 101.295 73.6741 100.886 73.2099C100.351 72.5858 99.9176 71.7752 99.8398 70.2872H99.8376ZM102.227 67.7286C101.661 67.3133 101.048 67.1356 100.386 67.1934C100.768 69.1323 102.243 71.2355 102.749 73.2343C103.118 72.7124 103.313 71.9462 103.429 71.0689C103.167 69.9629 102.982 68.8591 102.227 67.7286ZM103.429 73.0345C105.343 72.0039 107.14 70.6758 108.515 68.2861C108.091 68.1106 107.504 68.0773 106.756 68.1906C105.661 68.7725 104.95 69.6742 104.251 70.587C103.977 71.4021 103.704 72.2171 103.429 73.0345ZM107.302 72.2838C107.837 71.3799 108.115 70.4626 108.139 69.532C106.74 71.18 105.09 72.5992 103.231 73.8296C103.589 74.0672 104.16 74.1605 104.941 74.1138C105.807 73.6874 106.618 73.1322 107.3 72.286L107.302 72.2838ZM101.288 64.304C101.217 63.6421 101.212 62.7449 101.412 62.063C102.252 63.5666 103.724 65.5588 104.45 67.2245C103.764 67.5199 103.187 67.4643 102.718 67.0579C102.105 66.5116 101.565 65.7653 101.288 64.304ZM103.311 61.4456C102.694 61.1102 102.061 61.017 101.417 61.1636C102.056 63.0336 103.8 64.9169 104.573 66.8292C104.868 66.2606 104.957 65.4766 104.955 64.5927C104.546 63.5311 104.215 62.465 103.311 61.4434V61.4456ZM105.219 66.5404C106.978 65.2612 108.577 63.7021 109.616 61.1502C109.172 61.0325 108.586 61.0814 107.862 61.2946C106.856 62.0186 106.272 63.0069 105.703 64.0063C105.541 64.8503 105.381 65.6965 105.219 66.5427V66.5404ZM108.957 65.2745C109.363 64.3084 109.516 63.3601 109.414 62.4339C108.248 64.2551 106.805 65.8853 105.132 67.3533C105.519 67.5399 106.096 67.5554 106.865 67.4044C107.666 66.8669 108.393 66.2051 108.957 65.2745ZM101.921 58.1786C101.761 57.5323 101.634 56.6439 101.741 55.9399C102.778 57.3169 104.504 59.0914 105.448 60.6461C104.808 61.0303 104.228 61.0547 103.711 60.7149C103.029 60.2574 102.394 59.5889 101.921 58.1786ZM103.54 55.0737C102.885 54.8272 102.245 54.8183 101.625 55.0515C102.512 56.8194 104.495 58.4496 105.517 60.2396C105.732 59.6378 105.714 58.8471 105.592 57.9721C105.043 56.9749 104.57 55.9621 103.54 55.0737ZM106.118 59.8643C107.689 58.3585 109.063 56.5995 109.747 53.9277C109.292 53.8722 108.717 53.9988 108.028 54.3075C107.129 55.1604 106.685 56.2197 106.256 57.2858C106.209 58.1453 106.165 59.0048 106.118 59.8643ZM109.65 58.1053C109.923 57.0903 109.947 56.1309 109.721 55.227C108.812 57.1903 107.602 58.9981 106.141 60.6816C106.549 60.8126 107.122 60.7527 107.864 60.4973C108.586 59.8554 109.217 59.1025 109.65 58.1053ZM101.721 52.0244C101.474 51.407 101.23 50.543 101.241 49.8301C102.454 51.0561 104.404 52.5796 105.55 53.9921C104.968 54.4608 104.397 54.5607 103.838 54.2942C103.1 53.9322 102.381 53.3592 101.723 52.0222L101.721 52.0244ZM102.905 48.7285C102.221 48.5708 101.588 48.6508 101.004 48.9639C102.121 50.5963 104.304 51.9444 105.559 53.579C105.692 52.9527 105.568 52.1732 105.328 51.3226C104.65 50.4098 104.044 49.4703 102.902 48.7285H102.905ZM106.105 53.126C107.458 51.4225 108.584 49.4947 108.901 46.7541C108.441 46.7608 107.891 46.9629 107.249 47.3626C106.474 48.3288 106.176 49.4392 105.894 50.5519C105.965 51.4092 106.036 52.2665 106.105 53.126ZM109.368 50.9073C109.501 49.8656 109.394 48.9106 109.05 48.0467C108.415 50.1144 107.46 52.0688 106.238 53.9322C106.66 54.0077 107.222 53.87 107.922 53.5169C108.548 52.784 109.072 51.9511 109.368 50.905V50.9073ZM100.69 45.9524C100.364 45.3749 100.004 44.5509 99.9198 43.8447C101.286 44.8952 103.424 46.1411 104.75 47.3871C104.237 47.929 103.684 48.1067 103.093 47.9201C102.314 47.6603 101.523 47.1894 100.69 45.9546V45.9524ZM101.419 42.5277C100.719 42.4655 100.102 42.6276 99.5666 43.0185C100.893 44.4843 103.24 45.5259 104.704 46.9762C104.75 46.3388 104.524 45.5815 104.171 44.7708C103.376 43.958 102.649 43.1096 101.419 42.5277ZM105.183 46.4543C106.294 44.5843 107.149 42.521 107.093 39.7648C106.638 39.8315 106.121 40.1068 105.539 40.5888C104.901 41.6504 104.755 42.7897 104.626 43.9313C104.812 44.773 104.997 45.6125 105.183 46.4521V46.4543ZM108.117 43.8136C108.108 42.7631 107.875 41.8347 107.415 41.0219C107.065 43.1562 106.383 45.2217 105.425 47.2338C105.854 47.2516 106.392 47.0384 107.038 46.5942C107.56 45.7813 107.966 44.8885 108.117 43.8114V43.8136ZM98.8493 40.0758C98.4473 39.5472 97.9809 38.7787 97.801 38.0902C99.2979 38.9453 101.583 39.8936 103.067 40.9486C102.632 41.5549 102.107 41.8036 101.497 41.6993C100.688 41.5482 99.842 41.1862 98.8493 40.0758ZM99.1091 36.5844C98.4073 36.6155 97.8188 36.8621 97.3413 37.3196C98.8537 38.5922 101.319 39.3073 102.967 40.5466C102.929 39.9092 102.6 39.1896 102.141 38.4345C101.243 37.7349 100.408 36.9931 99.1114 36.5822L99.1091 36.5844ZM103.369 39.9669C104.217 37.9636 104.786 35.8049 104.359 33.082C103.917 33.2108 103.442 33.5529 102.929 34.1081C102.441 35.2452 102.449 36.3957 102.476 37.5439C102.774 38.3523 103.071 39.1585 103.369 39.9669ZM105.919 36.9576C105.77 35.9182 105.412 35.0276 104.848 34.2858C104.788 36.4467 104.391 38.5877 103.713 40.7109C104.14 40.671 104.644 40.3867 105.223 39.8603C105.632 38.9853 105.914 38.0436 105.916 36.9576H105.919ZM96.2308 34.5034C95.7622 34.0326 95.1958 33.3352 94.9249 32.6778C96.5217 33.3241 98.9159 33.9549 100.526 34.7988C100.177 35.4584 99.6932 35.776 99.0714 35.7538C98.2518 35.7138 97.3635 35.4695 96.2308 34.5034ZM96.0176 31.0077C95.3269 31.1343 94.7761 31.4563 94.3652 31.976C96.0354 33.0332 98.5739 33.4085 100.375 34.4146C100.251 33.7883 99.8287 33.1176 99.2713 32.4313C98.2874 31.8605 97.3613 31.2364 96.0176 31.0054V31.0077ZM100.695 33.7838C101.263 31.6851 101.537 29.4686 100.746 26.8256C100.326 27.0122 99.8998 27.4164 99.4689 28.0383C99.138 29.2331 99.3024 30.368 99.4845 31.5052C99.8887 32.2647 100.293 33.0243 100.695 33.7861V33.7838ZM102.816 30.4569C102.527 29.4464 102.054 28.6135 101.394 27.9539C101.628 30.1037 101.523 32.278 101.139 34.4723C101.557 34.3746 102.016 34.0259 102.52 33.4263C102.807 32.5046 102.96 31.534 102.818 30.4547L102.816 30.4569ZM92.8861 29.3331C92.3575 28.9289 91.7023 28.3159 91.3447 27.7007C93.0149 28.1249 95.4712 28.4269 97.1814 29.0466C96.9237 29.7484 96.4884 30.1282 95.8688 30.1904C95.0515 30.2614 94.1387 30.1393 92.8861 29.3331ZM92.202 25.8973C91.5357 26.1149 91.0316 26.5103 90.694 27.0788C92.493 27.9006 95.0604 27.9295 96.977 28.6846C96.7683 28.0805 96.2597 27.4742 95.6156 26.8701C94.5651 26.437 93.5612 25.9439 92.1998 25.8973H92.202ZM97.2124 28.0161C97.4923 25.8595 97.4634 23.6253 96.3241 21.1156C95.9332 21.3577 95.5667 21.8152 95.2225 22.4882C95.0559 23.7163 95.3735 24.8201 95.7067 25.9217C96.2086 26.6213 96.7105 27.3187 97.2147 28.0161H97.2124ZM98.8626 24.4337C98.4406 23.472 97.8587 22.7103 97.117 22.1461C97.6367 24.2449 97.8277 26.4148 97.7433 28.6402C98.143 28.4869 98.5539 28.0805 98.9714 27.4164C99.1313 26.4636 99.1513 25.482 98.8648 24.4337H98.8626ZM88.8728 24.6602C88.2954 24.3315 87.5625 23.8118 87.125 23.2522C88.8373 23.4476 91.3136 23.4143 93.0904 23.7985C92.9305 24.527 92.5485 24.9645 91.9444 25.1066C91.1426 25.2865 90.2232 25.2888 88.8728 24.6602ZM87.7313 21.3488C87.1005 21.6553 86.6541 22.1128 86.3965 22.7236C88.2887 23.2944 90.8361 22.9768 92.8394 23.4676C92.5507 22.8968 91.9666 22.366 91.247 21.853C90.1477 21.5665 89.0861 21.2133 87.7313 21.3488ZM92.9816 22.7724C92.9682 20.5981 92.6373 18.3883 91.1693 16.0541C90.8139 16.3473 90.5119 16.8492 90.2609 17.5621C90.2609 18.8014 90.7251 19.8519 91.2026 20.898C91.7956 21.5221 92.3886 22.1461 92.9794 22.7702L92.9816 22.7724ZM94.1342 18.9991C93.5879 18.1018 92.9061 17.4266 92.0954 16.9669C92.895 18.9769 93.3747 21.1001 93.5923 23.3166C93.9699 23.1122 94.3186 22.6525 94.6428 21.9396C94.6717 20.9757 94.5584 19.9985 94.1342 18.9991ZM84.2666 20.5715C83.6492 20.325 82.8563 19.9074 82.3455 19.4099C84.069 19.3722 86.5164 19.0057 88.3309 19.1456C88.271 19.8897 87.9512 20.3738 87.3737 20.5981C86.6053 20.8846 85.6902 21.0112 84.2688 20.5715H84.2666ZM82.6898 17.4444C82.1057 17.8331 81.7259 18.3461 81.5526 18.988C83.5048 19.2989 85.9856 18.6415 88.0378 18.8547C87.6758 18.3261 87.0228 17.8797 86.241 17.4688C85.1128 17.3334 84.0134 17.1246 82.6898 17.4444ZM88.0844 18.1462C87.7779 15.9941 87.1516 13.8487 85.3838 11.7344C85.0706 12.072 84.8396 12.6117 84.6886 13.3512C84.8574 14.5794 85.457 15.5588 86.0722 16.5294C86.743 17.0668 87.4137 17.6065 88.0866 18.144L88.0844 18.1462ZM88.7174 14.2529C88.0533 13.4401 87.2893 12.8604 86.4232 12.5162C87.487 14.3995 88.2488 16.4383 88.764 18.606C89.1105 18.3506 89.3948 17.8486 89.6213 17.1002C89.5214 16.1407 89.2771 15.1879 88.7196 14.2529H88.7174ZM79.1518 17.1446C78.5077 16.9825 77.6638 16.6782 77.0908 16.254C78.792 15.983 81.1684 15.2901 82.9851 15.1835C83.0251 15.9297 82.7742 16.4517 82.2323 16.7515C81.5082 17.1401 80.6221 17.3889 79.1518 17.1446ZM77.1663 14.2596C76.6399 14.7238 76.3335 15.2834 76.2491 15.9431C78.2257 15.9875 80.5954 15.0014 82.6564 14.9348C82.2256 14.4617 81.5193 14.1063 80.6887 13.8043C79.5516 13.8221 78.4344 13.7643 77.1663 14.2596ZM82.6076 14.2285C82.0124 12.1364 81.104 10.0953 79.0652 8.24085C78.8009 8.61841 78.6454 9.18253 78.5944 9.93764C78.9275 11.1325 79.6537 12.0209 80.3955 12.9004C81.1329 13.3446 81.8702 13.7865 82.6076 14.2285ZM82.7098 10.2841C81.9413 9.56675 81.1062 9.09813 80.2023 8.87159C81.5104 10.5928 82.541 12.5117 83.3427 14.5905C83.6514 14.2929 83.8669 13.7554 83.989 12.9825C83.7603 12.0453 83.3894 11.1347 82.712 10.2841H82.7098ZM73.6217 14.4395C72.9598 14.3662 72.0826 14.1774 71.4585 13.8354C73.1087 13.3379 75.3696 12.3296 77.153 11.9787C77.2929 12.7116 77.1152 13.2646 76.6177 13.6355C75.9537 14.1174 75.1075 14.4839 73.6195 14.4395H73.6217ZM71.2653 11.8499C70.8055 12.3807 70.579 12.9781 70.5834 13.6399C72.549 13.4179 74.7632 12.1208 76.7954 11.7788C76.3046 11.3679 75.5561 11.1125 74.6944 10.9237C73.5706 11.0948 72.4579 11.188 71.2675 11.8499H71.2653ZM76.651 11.0836C75.7804 9.09147 74.6033 7.19257 72.3335 5.62681C72.1226 6.03546 72.0426 6.61734 72.0959 7.37246C72.5867 8.50958 73.4262 9.29357 74.2791 10.0642C75.0697 10.404 75.8604 10.7416 76.651 11.0836ZM76.2202 7.16147C75.3629 6.55516 74.4701 6.20203 73.544 6.10209C75.072 7.63231 76.3512 9.39351 77.4261 11.3435C77.6904 11.0059 77.8304 10.4462 77.8481 9.66225C77.495 8.76499 77.0042 7.91215 76.218 7.16147H76.2202ZM67.7762 12.505C67.1121 12.5206 66.2171 12.454 65.553 12.1986C67.121 11.4834 69.2265 10.1797 70.9455 9.59118C71.1831 10.2974 71.0832 10.8682 70.639 11.3035C70.0438 11.8699 69.2575 12.3474 67.7762 12.505ZM65.0933 10.2552C64.7091 10.8438 64.5647 11.4656 64.658 12.1208C66.5747 11.6344 68.5935 10.0487 70.5635 9.43571C70.0216 9.09369 69.2464 8.94266 68.3647 8.87382C67.2743 9.19585 66.1838 9.43793 65.0933 10.253V10.2552ZM70.3258 8.76943C69.1931 6.91273 67.7717 5.18928 65.311 3.94556C65.1577 4.37864 65.1577 4.96719 65.311 5.70676C65.9506 6.76837 66.8878 7.43021 67.8384 8.07872C68.6668 8.30748 69.4952 8.53845 70.3258 8.76721V8.76943ZM69.3686 4.94054C68.438 4.45637 67.5052 4.22762 66.5747 4.25205C68.2959 5.5624 69.7995 7.1326 71.1298 8.92268C71.3474 8.55178 71.4096 7.97878 71.3208 7.19923C70.8477 6.35749 70.2481 5.57795 69.3686 4.94054Z" fill="#FFEC00"/>
<path fill-rule="evenodd" clip-rule="evenodd" d="M56.4228 95.0861C59.8119 95.1949 62.4193 95.4881 65.0134 95.9589L66.4969 96.2676C67.2276 96.4409 67.9516 96.6274 68.6757 96.8295C69.3886 97.045 70.0904 97.2715 70.7922 97.518C71.4852 97.7756 72.1625 98.0488 72.8421 98.342C73.5107 98.6485 74.1658 98.9683 74.8188 99.3081C75.4629 99.6657 76.0914 100.037 76.7155 100.427C77.3262 100.834 77.917 101.251 78.5033 101.691C81.606 97.7135 85.1039 94.0223 89.0061 90.8197C87.4959 89.6692 85.899 88.6454 84.2755 87.6682L82.3633 86.5999L80.4111 85.6182L78.4167 84.721L76.3845 83.9037L74.3124 83.1685L72.2025 82.5134L70.0527 81.9359L67.8672 81.4362C66.7523 81.2141 65.6397 81.0098 64.5181 80.8277C63.3765 80.6611 62.235 80.5145 61.089 80.3835C59.9185 80.2702 58.7525 80.1769 57.5799 80.1014L56.425 80.0815L55.2701 80.1014C54.0975 80.1769 52.9315 80.2702 51.761 80.3835C50.6128 80.5123 49.4735 80.6589 48.3297 80.8277C47.2081 81.012 46.0954 81.2141 44.9805 81.4362L42.7929 81.9359L40.6452 82.5134L38.5331 83.1685L36.461 83.9037L34.4266 84.721L32.4344 85.6182L30.48 86.5999L28.5678 87.6682C26.9421 88.6454 25.3452 89.6692 23.8372 90.8197C27.7394 94.0223 31.2374 97.7135 34.34 101.691C34.9263 101.249 35.5171 100.834 36.1279 100.427C36.7519 100.037 37.3805 99.6657 38.0245 99.3081C38.6775 98.9683 39.3327 98.6485 40.0012 98.342C40.6808 98.0488 41.3582 97.7779 42.0511 97.518C42.7529 97.2715 43.4547 97.045 44.1676 96.8295C44.8939 96.6274 45.6157 96.4409 46.3464 96.2676L47.8322 95.9589C50.424 95.4881 53.0336 95.1949 56.4205 95.0861H56.4228ZM85.4193 87.4394C76.9198 82.1358 67.1721 79.2908 56.4228 79.2908C45.6734 79.2908 35.9235 82.1358 27.424 87.4394C19.1932 79.6994 14.0384 68.7214 14.0384 56.5773C14.0384 33.233 33.0785 14.193 56.4228 14.193C79.767 14.193 98.8071 33.2308 98.8071 56.5773C98.8071 68.7214 93.6523 79.6994 85.4215 87.4394H85.4193ZM42.4908 101.918C41.2538 101.123 39.2483 100.847 35.6837 101.636C37.4871 100.354 39.4259 99.3036 41.4781 98.4664C41.7779 99.4791 42.1555 100.781 42.4908 101.918ZM34.2601 102.719C39.0373 101.44 41.4137 101.796 42.7662 102.846C42.7751 102.875 42.7818 102.904 42.7907 102.93C42.3509 103.648 41.8379 104.299 41.2826 104.929L40.6341 105.596C40.2899 105.915 39.9434 106.217 39.5792 106.513C39.2016 106.802 38.8219 107.072 38.4287 107.339C37.878 107.685 37.3272 108.003 36.7519 108.305C36.1478 108.603 35.5415 108.871 34.9174 109.125C34.2601 109.373 33.6049 109.6 32.9364 109.806C32.0747 110.055 31.2174 110.273 30.3423 110.464C30.0603 109.704 29.7649 108.958 29.4451 108.216C29.2319 107.748 29.0142 107.288 28.781 106.83C28.5367 106.377 28.2835 105.938 28.0126 105.5C27.7261 105.067 27.4307 104.654 27.1131 104.243L26.4313 103.455L25.6717 102.717L24.83 102.035L23.9016 101.416L22.88 100.865L21.7628 100.39L20.5436 99.9944L18.9445 99.6368L18.2427 97.5713L21.8828 97.8312L22.6446 97.7845L24.0549 97.5735L25.3274 97.2049L26.469 96.6896L27.7016 95.8723C27.7727 95.9256 27.9393 95.7879 28.077 95.708C30.2979 97.94 32.3278 100.299 34.2112 102.759C34.2267 102.746 34.2445 102.733 34.2601 102.719ZM70.3614 101.918C71.5984 101.123 73.5995 100.849 77.1574 101.633C75.3562 100.354 73.4218 99.3059 71.3741 98.4686C71.0721 99.4813 70.6945 100.781 70.3614 101.918ZM78.581 102.715C73.8105 101.44 71.4385 101.796 70.0882 102.846C70.0793 102.875 70.0726 102.904 70.0638 102.93C70.5035 103.648 71.0165 104.299 71.5718 104.929L72.2203 105.596C72.5645 105.915 72.911 106.217 73.2752 106.513C73.6506 106.802 74.0303 107.072 74.4257 107.339C74.9742 107.685 75.5273 108.003 76.1025 108.305C76.7066 108.603 77.3129 108.871 77.937 109.125C78.5921 109.373 79.2495 109.6 79.918 109.806C80.7775 110.055 81.637 110.273 82.5121 110.464C82.7919 109.704 83.0895 108.958 83.4094 108.216C83.6203 107.748 83.8402 107.288 84.0734 106.83C84.3177 106.377 84.5709 105.938 84.8419 105.5C85.1284 105.067 85.4237 104.654 85.7391 104.243L86.4232 103.455L87.1827 102.717L88.0245 102.035L88.9528 101.416L89.9744 100.865L91.0938 100.39L92.3131 99.9944L93.9122 99.6368L94.614 97.5713L90.9739 97.8312L90.2121 97.7845L88.7996 97.5735L87.527 97.2049L86.3854 96.6896L85.1528 95.8723C85.0817 95.9256 84.9107 95.7857 84.773 95.7057C82.5521 97.94 80.5177 100.299 78.6366 102.759C78.6188 102.744 78.601 102.731 78.5833 102.715H78.581ZM69.8372 103.965C65.533 105.058 60.8868 105.778 56.4205 105.778C51.9542 105.778 47.2725 105.02 43.0705 103.883C42.5064 104.707 41.869 105.453 41.1627 106.133C45.8245 107.512 51.4146 108.485 56.4205 108.485C61.4265 108.485 67.0233 107.512 71.6873 106.133C71.0054 105.478 70.388 104.758 69.8372 103.968V103.965ZM42.2488 98.1621C46.6928 99.6901 51.6411 100.538 56.4205 100.538C61.2 100.538 66.2504 99.7012 70.6745 98.191C70.3591 98.071 70.0415 97.9578 69.7217 97.8467C65.5264 99.2059 61.0579 99.9411 56.4205 99.9411C51.7832 99.9411 47.3147 99.2037 43.1194 97.8467C42.8262 97.9467 42.5375 98.051 42.2488 98.1599V98.1621ZM42.1732 98.2154V98.1932C42.1732 98.1932 42.1688 98.1932 42.1666 98.1932C42.1666 98.1998 42.171 98.2065 42.1732 98.2132V98.2154ZM70.3924 99.1793C66.015 100.598 61.0623 101.385 56.4205 101.385C51.7788 101.385 46.7861 100.538 42.4597 99.1771C42.8417 100.465 43.226 101.751 43.6102 103.039C43.5569 103.13 43.5036 103.219 43.4481 103.308C47.5457 104.401 52.1652 105.125 56.4205 105.125C60.6759 105.125 65.3576 104.418 69.4286 103.35C69.3642 103.248 69.302 103.144 69.242 103.039C69.6262 101.751 70.0082 100.465 70.3924 99.1793ZM93.8278 96.9206C104.677 86.8531 111.486 72.4858 111.486 56.5773C111.486 26.2504 86.7496 1.51363 56.4228 1.51363C26.0959 1.51363 1.35689 26.2504 1.35689 56.5795C1.35689 72.4858 8.16406 86.8531 19.0133 96.9206C23.0554 97.4403 25.5895 96.6918 27.4595 95.0972C25.936 93.6069 24.3258 92.1722 22.6179 90.8064C23.9016 89.8047 25.2186 88.8652 26.569 87.988C18.2538 80.0792 13.0546 68.9168 13.0546 56.5795C13.0546 32.6933 32.5366 13.2113 56.4228 13.2113C80.3089 13.2113 99.7888 32.6933 99.7888 56.5795C99.7888 68.9168 94.5918 80.077 86.2766 87.9858C87.6269 88.863 88.9462 89.8025 90.2299 90.8064C88.5219 92.17 86.9118 93.6025 85.3904 95.0928C87.2582 96.6896 89.7901 97.4403 93.8278 96.9228V96.9206ZM38.0312 108.472C43.7856 110.522 49.9754 111.641 56.4205 111.641C62.8657 111.641 69.0599 110.519 74.8166 108.467C73.9726 107.979 73.1842 107.432 72.4557 106.822C67.4186 108.387 61.8219 109.358 56.4183 109.358C51.0148 109.358 45.3292 108.37 40.4431 106.779C39.6991 107.406 38.8929 107.968 38.029 108.469L38.0312 108.472ZM56.4228 112.647C49.5401 112.647 42.9417 111.394 36.843 109.107C34.7731 110.12 32.4211 110.839 29.8582 111.337C28.037 106.24 25.7827 101.454 18.3959 100.312C17.9228 99.1482 17.5586 97.7645 17.0856 96.6008C17.1433 96.6119 17.201 96.623 17.2588 96.6341C6.83816 86.4444 0.353027 72.246 0.353027 56.5795C0.353027 25.6974 25.5407 0.509766 56.4228 0.509766C87.3049 0.509766 112.49 25.6974 112.49 56.5795C112.49 72.2482 106.005 86.4467 95.5845 96.6363C95.6467 96.6252 95.7089 96.6119 95.7711 96.5985C95.298 97.7645 94.9338 99.146 94.4607 100.312C87.0739 101.454 84.8196 106.242 82.9985 111.337C80.4333 110.839 78.0791 110.12 76.0092 109.105C69.9061 111.392 63.3077 112.647 56.4228 112.647ZM56.4228 95.8101C60.5248 95.8101 64.4426 96.2854 68.0716 97.327C64.3671 98.3908 60.4582 98.9594 56.4205 98.9594C52.3829 98.9594 48.4763 98.3908 44.774 97.327C48.403 96.2832 52.3229 95.8101 56.425 95.8101H56.4228Z" fill="#8C563A"/>
<path fill-rule="evenodd" clip-rule="evenodd" d="M78.5766 102.637C73.8061 101.363 71.4341 101.718 70.0838 102.768C70.0749 102.797 70.066 102.826 70.0593 102.853C70.4991 103.57 71.0121 104.221 71.5674 104.852L72.2159 105.518C72.5601 105.838 72.9066 106.14 73.2708 106.435C73.6484 106.724 74.0282 106.995 74.4213 107.261C74.9698 107.61 75.5228 107.925 76.0981 108.227C76.7022 108.525 77.3085 108.794 77.9326 109.047C78.5877 109.296 79.2451 109.52 79.9136 109.729C80.7731 109.978 81.6326 110.195 82.5077 110.386C82.7875 109.627 83.0851 108.88 83.405 108.139C83.6159 107.67 83.838 107.21 84.069 106.753C84.3133 106.3 84.5665 105.86 84.8375 105.422C85.124 104.989 85.4193 104.576 85.7347 104.165L86.4188 103.379L87.1783 102.64L88.0201 101.958L88.9484 101.338L89.97 100.787L91.0894 100.312L92.3109 99.9167L93.91 99.5591L94.6118 97.4936L90.9717 97.7535L90.2099 97.7069L88.7996 97.4959L87.527 97.1272L86.3854 96.6097L85.1528 95.7924C85.0818 95.8457 84.9107 95.7036 84.773 95.6258C82.5521 97.8601 80.5177 100.219 78.6366 102.68C78.6188 102.664 78.6011 102.651 78.5833 102.637H78.5766ZM34.2556 102.64C39.0351 101.36 41.4093 101.716 42.7596 102.766C42.7685 102.795 42.7773 102.824 42.784 102.851C42.3443 103.568 41.8312 104.219 41.276 104.849L40.6275 105.516C40.2832 105.835 39.9368 106.138 39.5725 106.433C39.195 106.722 38.8152 106.993 38.4221 107.259C37.8735 107.608 37.3205 107.923 36.7453 108.225C36.1412 108.523 35.5371 108.792 34.9108 109.045C34.2556 109.293 33.5982 109.518 32.9297 109.727C32.0702 109.975 31.2107 110.193 30.3357 110.384C30.0558 109.624 29.7582 108.878 29.4384 108.136C29.2252 107.668 29.0075 107.208 28.7743 106.751C28.53 106.297 28.2768 105.858 28.0059 105.42C27.7194 104.987 27.424 104.574 27.1086 104.163L26.4268 103.377L25.6672 102.637L24.8255 101.956L23.8972 101.336L22.8755 100.785L21.7584 100.31L20.5369 99.9145L18.9378 99.5569L18.236 97.4914L21.8761 97.7513L22.6379 97.7046L24.0482 97.4936L25.3208 97.125L26.4646 96.6075L27.695 95.7902C27.766 95.8435 27.9326 95.7058 28.0703 95.6258C30.2912 97.8601 32.3234 100.219 34.2045 102.677C34.2201 102.664 34.2378 102.651 34.2534 102.637L34.2556 102.64ZM56.4183 95.0062C59.8053 95.115 62.4149 95.4082 65.0067 95.879L66.4925 96.19C67.2232 96.3632 67.9472 96.5498 68.6712 96.7541C69.3842 96.9673 70.086 97.196 70.7878 97.4426C71.4785 97.7024 72.1581 97.9734 72.8377 98.2665C73.5062 98.573 74.1614 98.8928 74.8144 99.2326C75.4584 99.5902 76.087 99.9611 76.711 100.352C77.3218 100.758 77.9126 101.176 78.4989 101.616C81.6015 97.6402 85.0995 93.9468 89.0017 90.7442C87.4915 89.5938 85.8946 88.5699 84.2689 87.5927L82.3567 86.5267L80.4045 85.5428L78.4101 84.6455L76.3779 83.8282L74.3058 83.0931L72.1959 82.4379L70.046 81.8605L67.8606 81.3608C66.7457 81.1387 65.633 80.9366 64.5114 80.7522C63.3677 80.5857 62.2283 80.4391 61.0801 80.3081C59.9097 80.1948 58.7437 80.1015 57.571 80.026L56.4161 80.006L55.2612 80.026C54.0886 80.1015 52.9226 80.1948 51.7522 80.3081C50.6039 80.4369 49.4646 80.5835 48.3208 80.7522C47.1992 80.9366 46.0865 81.1387 44.9716 81.3608L42.784 81.8605L40.6341 82.4379L38.5243 83.0931L36.4521 83.8282L34.4177 84.6455L32.4256 85.5428L30.4711 86.5267L28.5589 87.5927C26.9332 88.5699 25.3363 89.5938 23.8261 90.7442C27.7283 93.9468 31.2263 97.638 34.3311 101.616C34.9175 101.176 35.5082 100.758 36.119 100.352C36.7453 99.9589 37.3716 99.5902 38.0157 99.2326C38.6708 98.8928 39.3238 98.573 39.9923 98.2665C40.6697 97.9734 41.3493 97.7024 42.0422 97.4426C42.744 97.196 43.4459 96.9695 44.1588 96.7541C44.8828 96.552 45.6068 96.3654 46.3375 96.19L47.8233 95.879C50.4151 95.4082 53.0248 95.115 56.4117 95.0062H56.4183Z" fill="#E30016"/>
<path fill-rule="evenodd" clip-rule="evenodd" d="M72.831 93.1983L71.8583 95.6902L71.8294 95.7834L71.8205 95.8567L71.8249 95.9167L71.8427 95.9656L71.8738 96.01L71.9249 96.0544L71.9982 96.0944L72.2225 96.1788L72.0915 96.5186L69.8972 95.8523L70.0304 95.5125L70.2481 95.5636L70.3369 95.5724L70.4102 95.5658L70.4724 95.5458L70.5279 95.5125L70.5768 95.4658L70.6234 95.3992L70.6656 95.3082L71.4674 93.2538L69.0621 95.5991L68.7623 95.508L68.5535 92.3588L67.7406 94.4398L67.7118 94.5331L67.7029 94.6086L67.7073 94.6685L67.7251 94.7174L67.7562 94.7596L67.8028 94.8018L67.8739 94.8418L68.0938 94.9262L67.9605 95.266L66.5169 94.8284L66.6502 94.4842L66.8101 94.5264L66.8967 94.5375L66.9744 94.5331L67.0455 94.5153C67.081 94.4997 67.1077 94.4864 67.1388 94.4642C67.1654 94.442 67.1876 94.4176 67.2098 94.3887C67.2343 94.3509 67.252 94.3176 67.2698 94.2776L68.2626 91.7324L68.287 91.6325C68.2937 91.5836 68.2981 91.5437 68.2759 91.4993C68.2204 91.4215 68.1138 91.3838 68.0294 91.3504L67.8317 91.286L67.9672 90.9418L69.6884 91.4637L69.8594 94.1066L71.9005 92.1344L73.6061 92.6519L73.4729 92.9939L73.2552 92.9429L73.1686 92.9362L73.0931 92.9429L73.0309 92.9628L72.9776 92.9939L72.9265 93.0406L72.8799 93.1072L72.8377 93.1983H72.831ZM63.7319 92.6941L64.5847 92.854L64.3715 91.8324L63.7319 92.6941ZM64.9267 90.3488L65.2776 90.4132L66.0727 94.2177L66.0949 94.2732C66.126 94.3243 66.1616 94.362 66.2171 94.3842C66.2993 94.4109 66.3881 94.4242 66.4725 94.442L66.3859 94.8018L64.145 94.382L64.2316 94.0222C64.3915 94.0489 64.5558 94.0866 64.718 94.0644C64.7513 94.0555 64.809 94.0444 64.8179 94.0045C64.8201 93.9867 64.8179 93.9689 64.8135 93.9489L64.6891 93.3537L63.4187 93.1161L63.11 93.527C63.09 93.5581 63.0678 93.5914 63.0589 93.6269L63.0545 93.6713L63.0589 93.698L63.07 93.7202L63.0922 93.7468L63.1322 93.7757L63.1944 93.8046L63.2788 93.8312L63.512 93.8845L63.4254 94.2421L61.9262 93.96L62.0106 93.6069L62.1839 93.6269H62.2372L62.2882 93.6136L62.3393 93.5936L62.3926 93.5625L62.4459 93.5225L62.5015 93.4692L62.5592 93.4026L64.9289 90.3466L64.9267 90.3488ZM58.4816 93.1783L58.5104 93.2249L58.5526 93.2627L58.6126 93.296L58.6926 93.3204L58.9213 93.356L58.8791 93.7157L57.3644 93.5758L57.4089 93.2138L57.5799 93.2227L57.6687 93.216L57.7442 93.1983C57.7775 93.1827 57.8064 93.1694 57.8353 93.1472C57.8597 93.125 57.8797 93.105 57.8997 93.0761C57.9174 93.045 57.9308 93.0161 57.9419 92.9806L57.9574 92.8962L58.2661 90.3111L58.0729 90.049C58.0374 90.0001 57.9996 89.9513 57.9619 89.9046C57.9419 89.8935 57.9219 89.8869 57.8975 89.8824L57.7531 89.8669L57.7975 89.5004L59.3122 89.6403L61.0801 92.0678L61.26 90.5487L61.2644 90.451L61.2555 90.3755L61.2355 90.3177L61.2044 90.2733L61.1622 90.2355L61.1023 90.2022L61.0223 90.1778L60.7936 90.1423L60.8358 89.7825L62.3504 89.9224L62.306 90.2822L62.0817 90.2755L61.9973 90.2866L61.9307 90.3088L61.8796 90.3399L61.8374 90.3799L61.8041 90.4354L61.7774 90.5087L61.7575 90.6042L61.3532 94.0022L60.9912 93.9667L58.7037 90.8796L58.4571 92.9473L58.4527 93.045L58.4616 93.1205L58.4816 93.1783ZM53.8354 90.069L54.1841 92.9828L54.2018 93.0783L54.2285 93.1494L54.264 93.2049L54.3084 93.2449L54.3617 93.276L54.4306 93.2982L54.5194 93.3071L54.7482 93.3004L54.7904 93.6602L52.485 93.8734L52.4428 93.5136L52.676 93.4781L52.7582 93.4515L52.8204 93.4181L52.8648 93.3804L52.8959 93.3337L52.9159 93.276L52.927 93.2005L52.9226 93.1028L52.5739 90.1822C52.525 90.1867 52.4762 90.1911 52.4295 90.1956C52.3518 90.2089 52.2807 90.2267 52.2074 90.2533L52.1075 90.2977L52.0209 90.3488L51.9431 90.4088L51.8765 90.4776L51.8188 90.5531L51.7677 90.6398L51.7255 90.7353L51.6944 90.8352L51.6566 91.2305L51.2924 91.2638L51.128 89.8802L55.1857 89.5049L55.35 90.8885L54.9792 90.9218L54.8703 90.5687L54.8192 90.471L54.7415 90.3732L54.6393 90.2733L54.5394 90.1956C54.4839 90.16 54.4284 90.1312 54.3662 90.1067C54.3173 90.089 54.2685 90.0734 54.2174 90.0623L54.0641 90.0468L53.8398 90.0579L53.8354 90.069ZM49.1958 95.0305L49.1847 94.9506L49.1936 94.8706C49.2047 94.8307 49.2158 94.7951 49.2336 94.7551L49.2558 94.7129L49.3158 94.6463L49.3846 94.5952L49.4623 94.5597C49.5045 94.5464 49.5423 94.5375 49.5867 94.5308H49.6711L49.7555 94.5442L49.8355 94.573L49.911 94.6152L49.9776 94.6685L50.0309 94.7352L50.0664 94.8107L50.0864 94.8928V94.9772L50.0709 95.0594L50.0353 95.1371L49.9843 95.206L49.9221 95.2637L49.851 95.3082L49.7711 95.3393L49.6867 95.3548H49.6L49.5157 95.3415L49.4357 95.3126L49.3602 95.2682L49.2958 95.2127L49.2447 95.146L49.2092 95.0705L49.1981 95.0305H49.1958ZM47.7411 90.3799L49.1092 90.1245L48.3052 89.7403L47.7411 90.3799ZM49.1758 93.8557H49.2691C49.3979 93.829 49.5268 93.7979 49.6533 93.7624C49.74 93.7357 49.8266 93.7069 49.911 93.6736C49.982 93.6425 50.0509 93.6091 50.1197 93.5714C50.1619 93.547 50.2019 93.5203 50.2441 93.4892C50.2863 93.4559 50.3241 93.4204 50.3618 93.3826C50.3996 93.3404 50.4351 93.2982 50.4707 93.2516C50.5062 93.2005 50.5373 93.1494 50.5684 93.0961C50.5995 93.0361 50.6283 92.9762 50.655 92.914C50.6816 92.8451 50.7083 92.7763 50.7305 92.7074L50.7749 92.5564L51.1702 92.4831V93.9267L47.3658 94.6397L47.2814 94.2865L47.5124 94.2288L47.5901 94.1955L47.6478 94.1577L47.6856 94.1155L47.71 94.0689L47.7234 94.0111V93.9356L47.7078 93.8401L47.0859 91.2572L47.0571 91.1617L47.0215 91.0928L46.9793 91.0417L46.9327 91.004L46.875 90.9773L46.8039 90.9618H46.7151L46.4907 90.9884L46.4063 90.6353L47.2214 90.4821L47.9144 89.1606L48.4163 89.0651L49.66 90.0245L50.1908 89.9246L50.5262 91.3171L50.1797 91.3815L49.9354 90.9418L49.8688 90.8552L49.7844 90.7774L49.6822 90.7086L49.5912 90.662C49.5312 90.6375 49.4712 90.6198 49.4068 90.6064C49.3491 90.5976 49.2936 90.5909 49.238 90.5887C49.1536 90.5887 49.0759 90.5953 48.9937 90.6064L48.403 90.7042C48.3674 90.713 48.3163 90.7197 48.2875 90.7419C48.2875 90.7508 48.2875 90.7597 48.2875 90.7663L48.3141 90.9329L48.5895 92.0767L48.7072 92.0456C48.8427 92.0012 49.0137 91.9457 49.0937 91.8213C49.1092 91.7924 49.1203 91.7635 49.1314 91.7302C49.1892 91.5259 49.1958 91.3083 49.2047 91.0973L49.5534 91.0306L50.0576 93.1183L49.7044 93.1849L49.5379 92.8962L49.4268 92.7341C49.3691 92.663 49.3158 92.5964 49.2336 92.5498L49.1825 92.5275C49.107 92.5053 49.0337 92.4987 48.956 92.4965C48.8694 92.4965 48.7827 92.5031 48.6961 92.5164L48.9782 93.6824C48.9937 93.7335 49.0093 93.7935 49.0426 93.8357H49.047C49.0892 93.8557 49.1359 93.8557 49.1825 93.8579L49.1758 93.8557ZM45.6801 91.5659L46.5196 94.1422L46.5551 94.2088L46.6018 94.2643C46.6307 94.2888 46.6573 94.3065 46.6906 94.3265L46.7617 94.3509L46.8505 94.362L46.9594 94.3554L47.0215 94.3465L47.2037 94.3065L47.3169 94.6574L44.9294 95.2615L44.8162 94.9151L45.0649 94.8373L45.1582 94.7929L45.2248 94.7463L45.2692 94.6974L45.2959 94.6463L45.3092 94.5886V94.5153L45.2848 94.4242L44.443 91.8413L44.4053 91.7658L44.3586 91.7102L44.3053 91.6703L44.2409 91.6436L44.161 91.6281H44.0633L43.9478 91.6436L43.7679 91.6836L43.6524 91.3327L46.0399 90.7286L46.1532 91.0751L45.9044 91.1528L45.8089 91.1972L45.7401 91.2438L45.6956 91.2927L45.669 91.3438L45.6557 91.4038V91.4748L45.6801 91.5681V91.5659ZM42.5797 94.271L42.5597 92.3032C42.5552 92.2433 42.5486 92.1722 42.5086 92.1211C42.4442 92.0611 42.3331 92.1011 42.2599 92.1211C42.1688 92.15 42.0777 92.1833 41.9867 92.2144L41.8312 91.8768L43.2859 91.3571L43.4392 91.688L43.2526 91.768L43.2038 91.7969L43.1638 91.8324L43.1327 91.8724L43.1083 91.919L43.0905 91.9723L43.0794 92.0367L43.0749 92.1122L43.1105 95.9322L42.824 96.0344L39.7391 93.2427C39.6702 93.1872 39.5881 93.1228 39.4926 93.1228C39.3948 93.1316 39.3016 93.1716 39.2083 93.2027L39.0528 92.8651L41.2471 92.0834L41.4026 92.4209C41.2982 92.4587 41.196 92.4965 41.0961 92.5409C41.0317 92.5742 40.9539 92.6119 40.9117 92.6741C40.9051 92.6852 40.9051 92.6852 40.9117 92.6963L40.9273 92.723L42.5819 94.2665L42.5797 94.271Z" fill="#FFEC00"/>
<path fill-rule="evenodd" clip-rule="evenodd" d="M18.9045 36.8998C18.9134 36.8842 18.9201 36.8687 18.9289 36.8531C26.0448 23.3987 40.1922 14.1952 56.4228 14.1952C72.6534 14.1952 86.7474 23.3654 93.8766 36.7776C93.8766 36.7799 93.8788 36.7843 93.8811 36.7887C88.1644 38.0147 85.2972 40.7087 81.6815 44.7264C65.1155 45.2727 44.5541 45.8035 30.0336 45.8035L30.0181 45.8213C25.785 44.1622 21.9161 38.9564 18.9045 36.8998Z" fill="#E30016"/>
<path fill-rule="evenodd" clip-rule="evenodd" d="M85.4193 87.4394C76.9198 82.1358 67.1721 79.2908 56.4228 79.2908C45.6734 79.2908 35.9235 82.1358 27.424 87.4394C19.1932 79.6994 14.0384 68.7214 14.0384 56.5773C14.0384 49.4814 15.7996 42.7853 18.9045 36.8976C21.9161 38.9542 25.7872 44.16 30.0181 45.8191L30.0336 45.8013C44.5541 45.8013 65.1133 45.2683 81.6815 44.7242C85.2972 40.7065 88.1622 38.0125 93.8811 36.7865C97.0215 42.6987 98.8071 49.4348 98.8071 56.5773C98.8071 68.7214 93.6523 79.6994 85.4215 87.4394H85.4193Z" fill="white"/>
<path fill-rule="evenodd" clip-rule="evenodd" d="M47.097 27.2876H54.1929L56.385 20.5337L58.5793 27.2876H65.6863L59.9452 31.4718L62.1394 38.2279L56.385 34.057L50.6306 38.2279L52.8248 31.4718L47.097 27.2876Z" fill="#FFEC00"/>
<path d="M47.097 27.2876H54.1929L56.385 20.5337L58.5793 27.2876H65.6863L59.9452 31.4718L62.1394 38.2279L56.385 34.057L50.6306 38.2279L52.8248 31.4718L47.097 27.2876Z" stroke="#E30016" stroke-width="0.22"/>
<path fill-rule="evenodd" clip-rule="evenodd" d="M96.0243 41.4949C95.9154 41.2106 95.8044 40.9286 95.6889 40.6487C95.6778 40.6221 95.6689 40.5954 95.6578 40.571C95.6578 40.571 95.6534 40.5577 95.6511 40.551C95.6489 40.5443 95.6467 40.5399 95.6423 40.5332C95.64 40.5266 95.6378 40.5221 95.6334 40.5155C95.6334 40.5155 95.6334 40.5133 95.6334 40.511C95.6289 40.4999 95.6245 40.4888 95.6201 40.4777C95.2647 39.6849 94.9071 38.8898 94.5518 38.0991C94.5518 38.0969 94.5518 38.0947 94.5473 38.0902C94.4541 37.8992 94.3608 37.7104 94.2653 37.5239C94.1676 37.3307 94.0676 37.1397 93.9677 36.9487C93.9632 36.942 93.961 36.9353 93.9566 36.9287C93.9321 36.8798 93.9055 36.8332 93.8811 36.7865C88.1333 38.008 85.3083 40.6976 81.6837 44.7264C65.1177 45.2727 44.5563 45.8035 30.0381 45.8035L30.0203 45.8213C25.7561 44.1489 21.9272 38.9208 18.9067 36.8976C18.9001 36.9109 18.8934 36.9242 18.8867 36.9376C18.7557 37.1863 18.6269 37.435 18.5025 37.6882C18.4759 37.7393 18.4514 37.7904 18.427 37.8393C18.3004 38.0969 18.176 38.3545 18.0539 38.6121C18.0295 38.6632 18.005 38.7165 17.9828 38.7676C17.8562 39.0386 17.7341 39.3117 17.6119 39.5849C17.6119 39.5893 17.6075 39.5916 17.6075 39.596C17.5964 39.6204 17.5853 39.6471 17.5742 39.6715C17.5719 39.6804 17.5675 39.6871 17.5631 39.696C17.4498 39.9558 17.3388 40.2157 17.2321 40.4777C17.2011 40.5532 17.17 40.6287 17.1389 40.7043C17.0478 40.9264 16.9612 41.1507 16.8746 41.375C16.8235 41.5038 16.7746 41.6326 16.7258 41.7636C17.1766 42.0635 17.643 42.4321 18.1272 42.8475L15.9573 43.9957C15.9573 43.9957 15.9573 43.9957 15.9573 43.9979C15.8574 44.3133 15.7641 44.6331 15.6731 44.9529C15.6642 44.984 15.6553 45.0151 15.6464 45.0484C15.5687 45.3238 15.4932 45.5992 15.4199 45.8768C15.3954 45.9745 15.3688 46.0723 15.3444 46.1678C15.2933 46.3721 15.2422 46.5764 15.1955 46.7807C15.1489 46.9762 15.1045 47.1716 15.0601 47.3671C15.0401 47.4559 15.0201 47.5447 15.0023 47.6336C14.9335 47.9534 14.8691 48.2754 14.8047 48.5975L20.3992 44.9685C20.8323 45.3882 21.272 45.8191 21.7229 46.2522L14.305 51.9067C14.2805 52.1354 14.2561 52.3619 14.2339 52.5907C14.2183 52.7506 14.205 52.9105 14.1917 53.0704C14.1784 53.2281 14.1673 53.3858 14.1562 53.5413C14.1384 53.7856 14.1228 54.0299 14.1095 54.2742C14.1051 54.3519 14.1006 54.4319 14.0962 54.5096C14.0806 54.8205 14.0695 55.1337 14.0607 55.4468C14.0607 55.4735 14.0607 55.4979 14.0584 55.5246C14.0495 55.8755 14.0451 56.2264 14.0451 56.5795V56.5995C14.0451 56.7661 14.0451 56.9348 14.0473 57.1014C14.0473 57.1325 14.0473 57.1658 14.0473 57.1969V57.2036C14.0473 57.2036 14.0473 57.2169 14.0473 57.2236C14.0473 57.3568 14.0518 57.4923 14.054 57.6256C14.054 57.6322 14.054 57.6389 14.054 57.6433V57.6478C14.054 57.6833 14.054 57.7188 14.0562 57.7521L24.0304 48.3598C24.6412 48.8773 25.2675 49.3659 25.9027 49.8034L14.2739 61.048C14.2761 61.0769 14.2805 61.1035 14.2827 61.1324C14.2983 61.2701 14.3138 61.41 14.3316 61.5499C14.3383 61.6055 14.3449 61.661 14.3516 61.7143C14.3671 61.8364 14.3805 61.9564 14.3982 62.0785C14.4071 62.1518 14.4182 62.2251 14.4271 62.2962C14.4404 62.3983 14.4538 62.4983 14.4693 62.5982C14.4804 62.676 14.4915 62.7537 14.5026 62.8314C14.5159 62.9225 14.5293 63.0135 14.5448 63.1046C14.5648 63.2268 14.5826 63.3467 14.6026 63.4688C14.6026 63.4733 14.6026 63.4777 14.6048 63.4822C14.607 63.4999 14.6114 63.5177 14.6137 63.5377C14.6159 63.5555 14.6203 63.5732 14.6225 63.5932C14.6225 63.5932 14.6225 63.5954 14.6225 63.5976C14.6781 63.9241 14.7358 64.2506 14.798 64.5749V64.5771L15.4709 66.4427L28.4257 51.196C29.3385 51.5624 30.2713 51.7734 31.2174 51.7734L34.4377 51.6668L17.0167 72.1793C17.15 72.5125 17.2854 72.8434 17.4276 73.1743C17.492 73.3276 17.5586 73.4786 17.6253 73.6296C17.6364 73.654 17.6475 73.6785 17.6563 73.7029C17.7185 73.845 17.7829 73.985 17.8473 74.1271C17.8562 74.1471 17.8651 74.1649 17.874 74.1848C17.9362 74.3225 18.0006 74.4602 18.0672 74.5979C18.0805 74.6268 18.0939 74.6557 18.1094 74.6846C18.1716 74.8156 18.2338 74.9466 18.2982 75.0777C18.3115 75.1065 18.3248 75.1332 18.3404 75.1621C18.4026 75.2887 18.4648 75.413 18.527 75.5396C18.5469 75.5818 18.5692 75.624 18.5914 75.664C18.6513 75.7817 18.7113 75.9016 18.7735 76.0193C18.7935 76.0593 18.8135 76.0971 18.8334 76.137C18.8956 76.2592 18.96 76.3813 19.0267 76.5013C19.0444 76.5346 19.0622 76.5679 19.0822 76.6034C19.1444 76.7189 19.2066 76.8322 19.271 76.9477C19.2954 76.9921 19.3176 77.0343 19.342 77.0765C19.402 77.1853 19.4642 77.2942 19.5242 77.4008C19.5552 77.4518 19.5841 77.5051 19.6152 77.5584C19.673 77.6606 19.7307 77.7606 19.7907 77.8627C19.8262 77.9249 19.8617 77.9849 19.8995 78.047C19.9528 78.1381 20.0061 78.2269 20.0594 78.3158C20.0949 78.3757 20.1327 78.4357 20.1682 78.4957C20.2215 78.5845 20.277 78.6733 20.3304 78.76C20.3748 78.831 20.4192 78.9043 20.4636 78.9754C20.5058 79.042 20.548 79.1087 20.5902 79.1753C20.6457 79.2619 20.699 79.3485 20.7545 79.4329C20.7945 79.4951 20.8367 79.5595 20.8767 79.6239C20.93 79.7083 20.9855 79.7905 21.0411 79.8727C21.0832 79.9348 21.1254 79.9992 21.1654 80.0614L38.7619 51.5246L45.0316 51.3181L24.3525 84.2435C24.5657 84.4922 24.7855 84.7387 25.0054 84.9808L27.4262 87.4438C30.8776 85.2917 34.5355 83.5416 38.3821 82.2246H38.3843C38.4865 82.1891 38.5909 82.1558 38.693 82.1202L49.4735 51.1715L53.9464 51.0249L48.1764 79.8771C48.1764 79.8771 48.1875 79.8771 48.192 79.8749C48.2853 79.8616 48.3785 79.8482 48.4718 79.8371C48.5207 79.8305 48.5695 79.8238 48.6184 79.8171C48.725 79.8016 48.8338 79.7883 48.9427 79.7749C49.0071 79.766 49.0693 79.7594 49.1337 79.7505C49.238 79.7372 49.3424 79.7261 49.4468 79.7127C49.4912 79.7083 49.5334 79.7016 49.5756 79.6972C49.6978 79.6839 49.8222 79.6683 49.9443 79.655C49.9798 79.6506 50.0176 79.6461 50.0531 79.6439C50.1775 79.6306 50.3019 79.6172 50.4285 79.6039C50.4618 79.5995 50.4929 79.5973 50.524 79.595C50.6594 79.5817 50.7927 79.5684 50.9282 79.5551C50.9593 79.5528 50.9904 79.5506 51.0215 79.5462C51.1525 79.5329 51.2835 79.5217 51.4146 79.5106C51.4434 79.5106 51.4745 79.5062 51.5012 79.504C51.6344 79.4929 51.7699 79.4818 51.9032 79.4729C51.9343 79.4707 51.9676 79.4684 51.9987 79.4662C52.143 79.4551 52.2874 79.444 52.434 79.4351C52.4362 79.4351 52.4384 79.4351 52.4429 79.4351C52.6005 79.424 52.7582 79.4151 52.9181 79.4063C52.9292 79.4063 52.9381 79.4063 52.947 79.404C53.7599 79.3574 54.5794 79.3263 55.4056 79.313H55.4278C55.5833 79.3108 55.7387 79.3085 55.8964 79.3063H55.9342C56.0963 79.3063 56.2606 79.3041 56.425 79.3041C56.5893 79.3041 56.7581 79.3041 56.9269 79.3063C57.0935 79.3063 57.2601 79.3108 57.4244 79.313H57.4289C57.7576 79.3174 58.0863 79.3263 58.4127 79.3374H58.4216C58.4216 79.3374 58.4261 79.3374 58.4283 79.3374H58.4438C58.5993 79.3419 58.7525 79.3485 58.908 79.3552C58.9191 79.3552 58.9302 79.3552 58.9413 79.3552C59.0968 79.3618 59.2522 79.3685 59.4077 79.3774H59.421C59.421 79.3774 59.4299 79.3774 59.4321 79.3774C59.5876 79.3863 59.7453 79.3929 59.9008 79.404H59.9141C60.074 79.4129 60.2317 79.424 60.3894 79.4351C60.3938 79.4351 60.4005 79.4351 60.4049 79.4351C60.4094 79.4351 60.4116 79.4351 60.4138 79.4351C60.5693 79.4462 60.7247 79.4573 60.878 79.4684C60.8846 79.4684 60.8891 79.4684 60.8935 79.4684C60.898 79.4684 60.9024 79.4684 60.9046 79.4684C61.0579 79.4795 61.2111 79.4929 61.3643 79.5062C61.371 79.5062 61.3755 79.5062 61.3821 79.5062H61.391C61.542 79.5195 61.6931 79.5329 61.8441 79.5462C61.8641 79.5462 61.8818 79.5506 61.8996 79.5506C62.0395 79.5639 62.1794 79.5773 62.3194 79.5906C62.3438 79.5906 62.366 79.595 62.3882 79.5973C62.5326 79.6128 62.6769 79.6284 62.8235 79.6439C62.8346 79.6439 62.8479 79.6461 62.859 79.6483C63.0056 79.6639 63.1522 79.6817 63.2988 79.6994C63.3166 79.7016 63.3343 79.7039 63.3521 79.7061C63.4965 79.7216 63.6386 79.7416 63.7807 79.7594C63.8007 79.7616 63.8185 79.7638 63.8363 79.766C63.9739 79.7838 64.1139 79.8016 64.2538 79.8216C64.2538 79.8216 64.256 79.8216 64.2582 79.8216L58.4683 50.8761L63.5675 50.7073L74.5389 82.2557C78.3545 83.5683 81.9835 85.3073 85.4104 87.4438C86.5942 86.3311 87.7158 85.1496 88.7663 83.9081L68.0383 50.5585L74.0548 50.3609L91.9577 79.6239C93.6234 77.0654 95.0204 74.3181 96.1109 71.422L78.1546 50.2276L83.1473 50.0633C83.205 49.9989 83.2606 49.9367 83.3183 49.8745L97.5367 66.8513C98.0298 64.8791 98.3851 62.8559 98.5894 60.7882L95.5135 57.861C96.2663 57.2325 97.2236 56.6772 98.7938 56.2353V56.1842C98.7938 56.1842 98.7938 56.1731 98.7938 56.1664V56.1486C98.7938 56.1264 98.7938 56.1064 98.7938 56.0842V56.0465C98.7938 56.0465 98.7938 56.0354 98.7938 56.0287V55.9776C98.7938 55.9776 98.7938 55.9665 98.7938 55.9621C98.7893 55.6911 98.7849 55.4202 98.7738 55.1492C96.7416 55.68 95.6845 56.3863 94.8272 57.1925L93.0238 55.449C94.2608 54.1631 95.5978 53.0304 98.5739 52.1954C98.5472 51.94 98.5184 51.6868 98.4873 51.4314C98.4606 51.2159 98.4318 51.0027 98.4029 50.7873C94.8694 51.7268 93.5701 53.0704 92.1443 54.5962L90.3342 52.8461C92.0443 51.0338 93.7656 49.4414 97.9831 48.2976C97.9476 48.12 97.9098 47.9401 97.8721 47.7624C97.8454 47.6358 97.8166 47.507 97.7877 47.3804C97.7233 47.0961 97.6567 46.8118 97.5878 46.5275C92.7728 47.8068 91.1626 49.6568 89.1993 51.7534L88.1311 50.7185C90.3831 48.3776 91.8267 46.2944 97.1569 44.9018C97.1569 44.9018 97.1569 44.8996 97.1569 44.8974C97.0836 44.642 97.0081 44.3888 96.9304 44.1356C96.9015 44.0401 96.8704 43.9468 96.8416 43.8513C96.7683 43.6226 96.695 43.396 96.6195 43.1695C90.8295 44.6842 89.628 47.0162 86.9851 49.608C86.6053 49.246 86.2277 48.8862 85.8479 48.5242C88.1288 45.0728 91.2026 42.4166 96.0176 41.5016L96.0243 41.4949Z" fill="#009035"/>
<path d="M31.8792 89.2517L32.7232 90.8152L34.6376 89.7825L33.7937 88.219L34.5488 87.8125L36.6831 91.7636L35.928 92.17L34.9863 90.4243L33.0719 91.4571L34.0136 93.2027L33.2584 93.6092L31.1241 89.6581L31.8792 89.2495V89.2517Z" fill="#FFEC00"/>
<path d="M40.7563 87.5793C41.2982 88.9163 40.703 90.1556 39.4193 90.6775C38.1289 91.2017 36.9074 90.6442 36.4166 89.4382C35.8947 88.1501 36.4432 86.8664 37.7292 86.3423C39.0573 85.8026 40.2632 86.3689 40.7541 87.5793H40.7563ZM37.627 85.3073L38.6064 85.7981L38.0201 86.0358L37.476 85.7581L37.4626 85.7626L37.265 86.34L36.6853 86.5754L37.0384 85.5449L37.627 85.3073ZM37.2517 89.0718C37.5892 89.9024 38.3799 90.3755 39.2105 90.0401C40.0456 89.7003 40.2877 88.8319 39.9279 87.9502C39.6058 87.1529 38.8307 86.6177 37.969 86.9686C37.1029 87.3195 36.9074 88.2234 37.2517 89.074V89.0718Z" fill="#FFEC00"/>
<path d="M41.7091 85.003L43.075 89.2806L42.2577 89.5426L40.8918 85.2651L41.7091 85.003Z" fill="#FFEC00"/>
<path d="M45.3403 88.6032L44.4342 84.2057L45.4447 83.997L47.1037 85.6271C47.5435 86.0735 47.9144 86.5088 48.2409 86.9575L48.2564 86.9486C48.0698 86.3711 47.9544 85.8425 47.8233 85.2096L47.4857 83.5772L48.2697 83.4151L49.1759 87.8125L48.2808 87.9969L46.5951 86.3045C46.1709 85.8625 45.7356 85.3917 45.3825 84.932L45.3603 84.9431C45.5158 85.5294 45.6379 86.0935 45.7756 86.7531L46.1243 88.441L45.3403 88.6032Z" fill="#FFEC00"/>
<path d="M54.2862 84.9808C54.4217 86.4178 53.4933 87.4327 52.1141 87.5615C50.7261 87.6926 49.7178 86.8064 49.5956 85.5116C49.4668 84.128 50.3618 83.0553 51.7455 82.9265C53.1713 82.7932 54.1641 83.6794 54.2862 84.983V84.9808ZM50.4973 85.4006C50.5817 86.2934 51.2036 86.9752 52.0942 86.8908C52.9914 86.8064 53.4734 86.0446 53.3845 85.0963C53.3046 84.2412 52.7182 83.5061 51.7899 83.5927C50.8593 83.6793 50.4129 84.49 50.4973 85.4028V85.4006ZM51.9431 81.9048L52.7382 82.6577L52.1075 82.7155L51.6655 82.2935H51.6522L51.2968 82.791L50.675 82.8487L51.3102 81.9626L51.9409 81.9026L51.9431 81.9048Z" fill="#FFEC00"/>
<path d="M55.1257 87.2551L55.1946 82.7666L56.2251 82.7821L57.491 84.7321C57.8242 85.2629 58.0907 85.767 58.3128 86.2779L58.3305 86.2712C58.275 85.6671 58.275 85.1274 58.2861 84.4789L58.3128 82.8132L59.1145 82.8243L59.0457 87.3128L58.1307 87.2995L56.8514 85.2829C56.5316 84.7587 56.2096 84.2035 55.9675 83.6794L55.943 83.686C55.9675 84.2901 55.9652 84.8698 55.9541 85.5427L55.9275 87.2662L55.1257 87.2551Z" fill="#FFEC00"/>
<path d="M63.9362 87.6215C63.6031 87.6948 62.9657 87.7881 62.2772 87.7059C61.4266 87.6037 60.8114 87.3173 60.4027 86.8242C60.0363 86.3889 59.8697 85.7937 59.9452 85.1607C60.1051 83.8326 61.2622 82.9664 62.939 83.1685C63.5653 83.2441 64.0428 83.4306 64.2582 83.5661L63.9806 84.2146C63.7119 84.0591 63.381 83.9214 62.8257 83.8548C61.7508 83.726 60.9602 84.2479 60.8447 85.2096C60.7314 86.1601 61.3288 86.9019 62.406 87.0308C62.7591 87.0729 63.0278 87.0596 63.1611 87.013L63.2899 85.9447L62.4015 85.8381L62.4815 85.1785L64.2049 85.385L63.9362 87.6215Z" fill="#FFEC00"/>
<path d="M67.2276 83.9903C67.6474 84.0392 68.156 84.1324 68.6824 84.2723C69.5996 84.5166 70.1726 84.8653 70.5213 85.3473C70.8722 85.8181 71.0121 86.3911 70.8278 87.0818C70.6346 87.8081 70.2081 88.3078 69.6662 88.5832C69.0688 88.8763 68.2382 88.8897 67.2987 88.6409C66.7635 88.4988 66.3837 88.3722 66.095 88.2567L67.2254 83.9881L67.2276 83.9903ZM67.0855 87.8703C67.2099 87.9258 67.412 87.9813 67.6119 88.0346C68.8267 88.3633 69.6662 87.9125 69.9372 86.8886C70.1948 85.9403 69.6973 85.2251 68.5669 84.9253C68.2582 84.8431 68.0383 84.8143 67.8961 84.8054L67.0833 87.868L67.0855 87.8703Z" fill="#FFEC00"/>
<path d="M72.1204 88.6876L71.2564 89.7536L70.4147 89.4338L73.4907 85.7981L74.5345 86.1934L74.4745 90.9707L73.5928 90.6375L73.6217 89.2561L72.1226 88.6876H72.1204ZM73.7017 88.6009L73.7194 87.3972C73.7261 87.1085 73.7461 86.8286 73.7638 86.5754L73.7505 86.571C73.5973 86.7753 73.4374 87.0063 73.2619 87.2195L72.489 88.1412L73.7017 88.6009ZM74.7233 85.1274L75.1075 86.1535L74.5167 85.9292L74.3058 85.3562L74.2924 85.3517L73.755 85.6427L73.1709 85.4206L74.1303 84.9053L74.7233 85.1296V85.1274Z" fill="#FFEC00"/>
<path d="M74.9743 91.2039L76.9931 87.1929L77.9148 87.6571L78.2057 89.9646C78.2746 90.5887 78.2946 91.1595 78.2701 91.7147H78.2879C78.5011 91.1484 78.7365 90.6642 79.0275 90.0845L79.7782 88.5965L80.4933 88.9563L78.4745 92.9673L77.6572 92.5564L77.3862 90.1845C77.3285 89.5737 77.2796 88.9341 77.2885 88.3566L77.2641 88.35C77.022 88.9052 76.7666 89.4249 76.4645 90.0268L75.6894 91.5659L74.9743 91.2061V91.2039Z" fill="#FFEC00"/>
<path fill-rule="evenodd" clip-rule="evenodd" d="M39.6569 91.3216L39.6192 91.2639L39.5948 91.1972C39.5881 91.1617 39.5836 91.1306 39.5836 91.0928V91.0529L39.6081 90.9796L39.6414 90.9152L39.688 90.8574C39.7169 90.8308 39.7436 90.8108 39.7746 90.7886L39.8413 90.7553L39.9101 90.7353L39.9834 90.7286L40.0567 90.733L40.1278 90.7508L40.1944 90.7819L40.2499 90.8263L40.2966 90.8841L40.3299 90.9485L40.3477 91.0195V91.0928L40.3343 91.1639L40.3077 91.2328L40.2677 91.2949L40.2166 91.3482L40.1567 91.3927L40.09 91.426L40.019 91.446L39.9457 91.4549L39.8701 91.4482L39.8013 91.4304L39.7369 91.3993L39.6814 91.3549L39.6569 91.3283V91.3216Z" fill="#FFEC00"/>
</g>
<defs>
<clipPath id="clip0_1_93">
<rect width="112.137" height="112.137" fill="white" transform="translate(0.353027 0.509766)"/>
</clipPath>
</defs>
</svg>
